<svg width="299" height="114" viewBox="0 0 299 114" fill="none" xmlns="http://www.w3.org/2000/svg">
<path d="M33.0864 39.8208C22.928 39.8208 13.912 44.7152 8.2672 52.264L18.5152 62.512C21.3936 57.4608 26.8368 54.0448 33.0864 54.0448C42.3488 54.0448 49.8752 61.5712 49.8752 70.8336C49.8752 80.096 42.3488 87.6224 33.0864 87.6224C27.9232 87.6224 23.2976 85.2928 20.2176 81.6304H4C8.3792 93.4352 19.7472 101.846 33.0864 101.846C50.2112 101.846 64.0992 87.9696 64.0992 70.8336C64.0992 53.6976 50.2112 39.8208 33.0864 39.8208Z" fill="#FF8029"/>
<path d="M73.3952 40.952H88.168V100.603H73.3952V40.952Z" fill="#262529"/>
<path d="M99.0208 64.8528C99.0208 49.4416 108.138 39.7648 124.557 39.7648C140.976 39.7648 150.093 49.4304 150.093 64.8528V100.603H135.32V64.8528C135.32 57.5504 131.859 53.4512 124.557 53.4512C117.254 53.4512 113.794 57.5616 113.794 64.8528V100.603H99.0208V64.8528Z" fill="#262529"/>
<path d="M157.944 70.7776C157.944 52.9024 171.082 39.7648 189.685 39.7648C205.645 39.7648 217.685 49.4304 220.698 63.576H205.096C202.722 57.4608 197.155 53.4512 189.685 53.4512C179.56 53.4512 172.907 60.7536 172.907 70.7776C172.907 80.8016 179.56 88.104 189.685 88.104C197.166 88.104 202.733 84.0944 205.096 77.9792H220.698C217.685 92.1136 205.645 101.79 189.685 101.79C171.082 101.79 157.944 88.6528 157.944 70.7776Z" fill="#262529"/>
<path d="M226.443 70.7776C226.443 52.9024 239.581 39.7648 258.184 39.7648C276.787 39.7648 289.925 52.9024 289.925 70.7776C289.925 88.6528 276.787 101.79 258.184 101.79C239.581 101.79 226.443 88.6528 226.443 70.7776ZM274.962 70.7776C274.962 60.7424 268.298 53.4512 258.173 53.4512C248.048 53.4512 241.395 60.7536 241.395 70.7776C241.395 80.8016 248.048 88.104 258.173 88.104C268.298 88.104 274.962 80.8016 274.962 70.7776Z" fill="#262529"/>
</svg>
