<svg width="373" height="114" viewBox="0 0 373 114" fill="none" xmlns="http://www.w3.org/2000/svg">
<g clip-path="url(#clip0_1_117)">
<g clip-path="url(#clip1_1_117)">
<path d="M73.3952 40.952H88.168V100.603H73.3952V40.952Z" fill="#262529"/>
<path d="M99.0208 64.8528C99.0208 49.4416 108.138 39.7648 124.557 39.7648C140.976 39.7648 150.093 49.4304 150.093 64.8528V100.603H135.32V64.8528C135.32 57.5504 131.859 53.4512 124.557 53.4512C117.254 53.4512 113.794 57.5616 113.794 64.8528V100.603H99.0208V64.8528Z" fill="#262529"/>
<path d="M157.944 70.7776C157.944 52.9024 171.082 39.7648 189.685 39.7648C205.645 39.7648 217.685 49.4304 220.698 63.576H205.096C202.722 57.4608 197.155 53.4512 189.685 53.4512C179.56 53.4512 172.907 60.7536 172.907 70.7776C172.907 80.8016 179.56 88.104 189.685 88.104C197.166 88.104 202.733 84.0944 205.096 77.9792H220.698C217.685 92.1136 205.645 101.79 189.685 101.79C171.082 101.79 157.944 88.6528 157.944 70.7776Z" fill="#262529"/>
<path d="M226.443 70.7776C226.443 52.9024 239.581 39.7648 258.184 39.7648C276.787 39.7648 289.925 52.9024 289.925 70.7776C289.925 88.6528 276.787 101.79 258.184 101.79C239.581 101.79 226.443 88.6528 226.443 70.7776ZM274.962 70.7776C274.962 60.7424 268.298 53.4512 258.173 53.4512C248.048 53.4512 241.395 60.7536 241.395 70.7776C241.395 80.8016 248.048 88.104 258.173 88.104C268.298 88.104 274.962 80.8016 274.962 70.7776Z" fill="#262529"/>
<path d="M299.131 40.952H313.904V100.603H299.131V40.952Z" fill="#FF8029"/>
<path d="M322.942 82.9968H337.357C337.357 86.7376 339.642 89.112 345.387 89.112C351.133 89.112 353.418 86.7376 353.418 82.9968C353.418 79.0768 348.859 78.1584 343.382 77.1616C334.904 75.616 324.051 73.6 324.051 59.1072C324.051 47.7952 332.619 39.7648 345.488 39.7648C358.357 39.7648 366.466 47.336 366.925 58.648H353.059C352.97 55.1872 350.774 52.4432 345.667 52.4432C340.56 52.4432 338.275 55.456 338.275 58.5584C338.275 62.4784 342.834 63.3968 348.4 64.3936C356.968 65.9392 367.832 67.9552 367.832 82.4592C367.832 94.32 358.894 101.79 345.398 101.79C331.902 101.79 323.234 94.5888 322.965 82.9968H322.942Z" fill="#FF8029"/>
<path d="M33.0864 39.8208C22.928 39.8208 13.912 44.7152 8.2672 52.264L18.5152 62.512C21.3936 57.4608 26.8368 54.0448 33.0864 54.0448C42.3488 54.0448 49.8752 61.5712 49.8752 70.8336C49.8752 80.096 42.3488 87.6224 33.0864 87.6224C27.9232 87.6224 23.2976 85.2928 20.2176 81.6304H4C8.3792 93.4352 19.7472 101.846 33.0864 101.846C50.2112 101.846 64.0992 87.9696 64.0992 70.8336C64.0992 53.6976 50.2112 39.8208 33.0864 39.8208Z" fill="#262529"/>
<path d="M9.47681 12H56.0912C56.0912 19.1456 50.2896 24.936 43.1552 24.936H9.47681V12Z" fill="#FF8029"/>
</g>
</g>
<defs>
<clipPath id="clip0_1_117">
<rect width="364.34" height="89.98" fill="white" transform="translate(4 12)"/>
</clipPath>
<clipPath id="clip1_1_117">
<rect width="363.81" height="89.8464" fill="white" transform="translate(4 12)"/>
</clipPath>
</defs>
</svg>
